# xmcd CD database file
#
# Track frame offsets:
#	150
#	21802
#	39163
#	55056
#	75465
#	91631
#	112364
#	129886
#	145272
#	160570
#	182801
#	198986
#	210242
#
# Disc length: 3015 seconds
#
# Revision: 0
# Processed by: cddbd v1.5PL3 Copyright (c) Steve Scherf et al.
# Submitted via: CDex 1.51
#
DISCID=9a0bc50d
DTITLE=Carlos Manuel y su Clan - Enamora'o
DYEAR=1900
DGENRE=Salsa
TTITLE0=Deja que te Diga
TTITLE1=Golpes
TTITLE2=El Perdon
TTITLE3=El Ultimo que Haria
TTITLE4=La Culpa
TTITLE5=Yo lo Presenti
TTITLE6=Esto fue lo que Quedo
TTITLE7=Enamora'o
TTITLE8=La Pistola
TTITLE9=La Coca Cola del Olvido
TTITLE10=La Mamzana
TTITLE11=Singapur
TTITLE12=La Pistola (en vivo)
EXTD=
EXTT0=
EXTT1=
EXTT2=
EXTT3=
EXTT4=
EXTT5=
EXTT6=
EXTT7=
EXTT8=
EXTT9=
EXTT10=
EXTT11=
EXTT12=
PLAYORDER=
